# File created by Blade
# Date/Time:  Wed Jan 21 14:43:55 2015
# Frame Rate: 120.000 fps
#------------------------------------------------------
:FULLY-SPECIFIED
:DEGREES
1593
root 20.276086 35.602408 -20.417111 -172.799198 0.074271 181.997590
Spine -17.154344 -1.553081 5.370849
Head 20.664795 -0.693722 6.029070
LeftShoulder -12.764761 -53.563431 50.418683
LeftArm 48.649434 -34.877922 -16.692555
LeftForeArm -35.607088 -0.000000 67.457107
LeftHand 3.125924 -0.000000 -0.181774
LeftHandThumb1 -26.253704 0.000000 33.147579
RightShoulder -10.407687 13.479870 -34.830793
RightArm 56.671971 56.749954 19.812329
RightForeArm -22.136791 -0.000000 41.082741
RightHand 0.791203 -0.000000 2.005236
RightHandThumb1 -24.326973 -0.000000 -32.862282
LeftUpLeg -0.587423 13.008884 4.612214
LeftLeg -5.263488 -0.000000 0.000000
LeftFoot -18.976133 27.570977 -14.097749
LeftToeBase 26.956011 -0.000000 -0.000000
RightUpLeg -0.649889 -7.371274 0.945346
RightLeg -3.624250 -0.000000 0.000000
RightFoot -19.741483 -20.890333 18.113709
RightToeBase 25.625263 -0.000000 -0.000000
1594
root 20.293139 35.601236 -20.415142 -172.770387 0.018751 182.027544
Spine -17.210593 -1.503618 5.172882
Head 20.125824 -0.661153 5.781472
LeftShoulder -12.757827 -53.255579 49.795909
LeftArm 48.459522 -34.872441 -16.498660
LeftForeArm -34.071347 -0.000000 66.840548
LeftHand 2.942654 -0.000000 0.180679
LeftHandThumb1 -26.253704 0.000000 33.147579
RightShoulder -10.308707 13.793258 -34.835956
RightArm 55.601142 56.085955 19.350965
RightForeArm -22.971042 0.000000 39.999820
RightHand 0.716580 -0.000000 1.878080
RightHandThumb1 -24.326973 -0.000000 -32.862282
LeftUpLeg -0.580375 13.033757 4.663621
LeftLeg -5.367782 -0.000000 0.000000
LeftFoot -18.914315 27.537438 -14.098522
LeftToeBase 27.008686 -0.000000 -0.000000
RightUpLeg -0.664356 -7.404682 1.010746
RightLeg -3.644101 -0.000000 0.000000
RightFoot -19.736291 -20.888503 18.116050
RightToeBase 25.519159 -0.000000 -0.000000
1595
root 20.305991 35.599253 -20.412472 -172.732173 -0.026326 182.059987
Spine -17.275223 -1.432368 4.978832
Head 19.550916 -0.665895 5.563092
LeftShoulder -12.718573 -52.929865 49.149768
LeftArm 48.286864 -34.869510 -16.277832
LeftForeArm -32.522952 -0.000000 66.174866
LeftHand 2.771382 0.000000 0.547197
LeftHandThumb1 -26.253704 0.000000 33.147579
RightShoulder -10.102787 13.668470 -34.609055
RightArm 54.350734 55.831572 18.373297
RightForeArm -23.426086 -0.000000 38.783133
RightHand 0.604945 -0.000000 1.652016
RightHandThumb1 -24.326973 -0.000000 -32.862282
LeftUpLeg -0.588049 13.065111 4.708838
LeftLeg -5.460418 -0.000000 0.000000
LeftFoot -18.861990 27.500533 -14.079241
LeftToeBase 27.021495 -0.000000 -0.000000
RightUpLeg -0.690846 -7.420339 1.071052
RightLeg -3.663944 -0.000000 0.000000
RightFoot -19.741063 -20.895237 18.120899
RightToeBase 25.544562 -0.000000 -0.000000
1596
root 20.314724 35.597020 -20.410973 -172.698782 -0.058057 182.084139
Spine -17.333220 -1.336108 4.784908
Head 18.915934 -0.701823 5.328326
LeftShoulder -12.737350 -52.625423 48.527829
LeftArm 48.142235 -34.767629 -16.051667
LeftForeArm -31.000406 -0.000000 65.493842
LeftHand 2.888528 0.000000 1.023701
LeftHandThumb1 -26.253704 0.000000 33.147579
RightShoulder -9.893097 13.406272 -34.280065
RightArm 53.204456 55.688499 17.356946
RightForeArm -23.744246 -0.000000 37.479377
RightHand 0.495635 -0.000000 1.311954
RightHandThumb1 -24.326973 -0.000000 -32.862282
LeftUpLeg -0.589924 13.069312 4.741659
LeftLeg -5.540943 -0.000000 0.000000
LeftFoot -18.814871 27.485527 -14.056028
LeftToeBase 27.000777 -0.000000 -0.000000
RightUpLeg -0.714134 -7.418731 1.116666
RightLeg -3.681630 -0.000000 0.000000
RightFoot -19.735197 -20.931051 18.091424
RightToeBase 25.536913 -0.000000 -0.000000
1597
root 20.322509 35.595331 -20.409079 -172.659714 -0.097949 182.100104
Spine -17.396292 -1.263327 4.584686
Head 18.343090 -0.686052 5.141173
LeftShoulder -12.772008 -52.237426 47.911137
LeftArm 48.040132 -34.710233 -15.845192
LeftForeArm -29.745048 0.000000 64.800108
LeftHand 2.612553 -0.000000 1.339143
LeftHandThumb1 -26.253704 0.000000 33.147579
RightShoulder -9.712132 13.164798 -33.908900
RightArm 52.177720 55.502378 16.398515
RightForeArm -24.186490 -0.000000 36.169529
RightHand 0.317147 0.000000 1.003839
RightHandThumb1 -24.326973 -0.000000 -32.862282
LeftUpLeg -0.618064 13.078754 4.765601
LeftLeg -5.586514 -0.000000 0.000000
LeftFoot -18.783555 27.454863 -14.034190
LeftToeBase 27.089668 -0.000000 -0.000000
RightUpLeg -0.743817 -7.436990 1.152760
RightLeg -3.694684 -0.000000 0.000000
RightFoot -19.739390 -20.931864 18.061941
RightToeBase 25.540753 -0.000000 -0.000000
1598
root 20.326875 35.593267 -20.406848 -172.631721 -0.113591 182.112758
Spine -17.453398 -1.144860 4.380427
Head 17.772604 -0.751817 4.925076
LeftShoulder -12.735856 -51.960529 47.247590
LeftArm 47.883547 -34.535613 -15.545394
LeftForeArm -28.290490 -0.000000 64.085641
LeftHand 2.450819 -0.000000 1.859493
LeftHandThumb1 -26.253704 0.000000 33.147579
RightShoulder -9.535278 13.046856 -33.603852
RightArm 51.113737 55.221765 15.565794
RightForeArm -24.694767 -0.000000 34.983170
RightHand 0.289701 -0.000000 0.811932
RightHandThumb1 -24.326973 -0.000000 -32.862282
LeftUpLeg -0.631407 13.086211 4.780763
LeftLeg -5.631105 -0.000000 0.000000
LeftFoot -18.768009 27.455915 -14.031101
LeftToeBase 27.057030 -0.000000 -0.000000
RightUpLeg -0.770753 -7.434033 1.179688
RightLeg -3.708918 -0.000000 0.000000
RightFoot -19.728409 -20.942850 18.124442
RightToeBase 25.376164 -0.000000 -0.000000
1599
root 20.329626 35.591116 -20.405513 -172.613993 -0.123098 182.122591
Spine -17.524495 -1.017793 4.183342
Head 17.247419 -0.685789 4.770490
LeftShoulder -12.591399 -51.588398 46.493742
LeftArm 47.671251 -34.419319 -15.151278
LeftForeArm -26.846243 -0.000000 63.398962
LeftHand 2.202714 -0.000000 2.353571
LeftHandThumb1 -26.253704 0.000000 33.147579
RightShoulder -9.314508 12.820320 -33.243165
RightArm 50.108569 55.035059 14.754666
RightForeArm -25.202426 -0.000000 33.865749
RightHand 0.122238 -0.000000 0.775324
RightHandThumb1 -24.326973 -0.000000 -32.862282
LeftUpLeg -0.630402 13.095047 4.794760
LeftLeg -5.674813 -0.000000 0.000000
LeftFoot -18.746153 27.432373 -14.029697
LeftToeBase 27.029029 -0.000000 -0.000000
RightUpLeg -0.797067 -7.447307 1.204229
RightLeg -3.694043 -0.000000 0.000000
RightFoot -19.748992 -20.990421 17.970257
RightToeBase 25.521693 -0.000000 -0.000000
1600
root 20.330610 35.589081 -20.404798 -172.581164 -0.123020 182.136705
Spine -17.575779 -0.857698 3.991774
Head 16.676288 -0.705836 4.566736
LeftShoulder -12.616084 -51.177593 45.877130
LeftArm 47.557900 -34.307474 -14.935980
LeftForeArm -25.300254 -0.000000 62.673276
LeftHand 2.122884 -0.000000 2.810495
LeftHandThumb1 -26.253704 0.000000 33.147579
RightShoulder -9.193080 12.609721 -32.907825
RightArm 49.107707 54.820122 13.966028
RightForeArm -25.573389 0.000000 32.779457
RightHand 0.215079 0.000000 0.920816
RightHandThumb1 -24.326973 -0.000000 -32.862282
LeftUpLeg -0.647905 13.113616 4.807640
LeftLeg -5.706748 -0.000000 0.000000
LeftFoot -18.742558 27.415344 -14.025285
LeftToeBase 27.081707 -0.000000 -0.000000
RightUpLeg -0.835501 -7.451280 1.231016
RightLeg -3.692096 -0.000000 0.000000
RightFoot -19.729707 -20.990196 18.045720
RightToeBase 25.258150 -0.000000 -0.000000
1601
root 20.329813 35.586145 -20.404188 -172.577192 -0.117622 182.153178
Spine -17.599009 -0.666476 3.808229
Head 16.123359 -0.831610 4.300889
LeftShoulder -12.594859 -50.863732 45.246551
LeftArm 47.352255 -34.084168 -14.651170
LeftForeArm -23.983682 0.000000 62.011254
LeftHand 1.971027 0.000000 3.366203
LeftHandThumb1 -26.253704 0.000000 33.147579
RightShoulder -9.060826 12.424074 -32.581370
RightArm 48.084790 54.576360 13.185854
RightForeArm -26.028372 0.000000 31.776980
RightHand -0.076167 -0.000000 1.019835
RightHandThumb1 -24.326973 -0.000000 -32.862282
LeftUpLeg -0.637515 13.115635 4.827591
LeftLeg -5.730317 -0.000000 0.000000
LeftFoot -18.748247 27.416704 -14.005415
LeftToeBase 27.102668 -0.000000 -0.000000
RightUpLeg -0.846949 -7.456819 1.253779
RightLeg -3.687221 -0.000000 0.000000
RightFoot -19.722128 -21.018360 17.978817
RightToeBase 25.225431 -0.000000 -0.000000
1602
root 20.325989 35.582947 -20.404492 -172.584317 -0.090318 182.161747
Spine -17.607082 -0.488569 3.640452
Head 15.611763 -0.912511 4.016655
LeftShoulder -12.543618 -50.409961 44.548370
LeftArm 47.144776 -33.943444 -14.278478
LeftForeArm -22.711234 -0.000000 61.320340
LeftHand 1.997728 -0.000000 4.062167
LeftHandThumb1 -26.253704 0.000000 33.147579
RightShoulder -8.898061 12.222983 -32.221079
RightArm 46.981178 54.313613 12.246215
RightForeArm -26.408369 -0.000000 30.736928
RightHand -0.182503 -0.000000 0.902431
RightHandThumb1 -24.326973 -0.000000 -32.862282
LeftUpLeg -0.606520 13.132309 4.836430
LeftLeg -5.758605 -0.000000 0.000000
LeftFoot -18.753944 27.414955 -13.983759
LeftToeBase 27.096421 -0.000000 -0.000000
RightUpLeg -0.860397 -7.452989 1.259289
RightLeg -3.657627 -0.000000 0.000000
RightFoot -19.729931 -21.030242 17.881430
RightToeBase 25.217781 -0.000000 -0.000000
